<svg id="Capa_1" enable-background="new 0 0 512.752 512.752" height="512" viewBox="0 0 512.752 512.752" width="512" xmlns="http://www.w3.org/2000/svg"><g><path d="m23.959 419.486c-3.686-1.894-8.206-.442-10.1 3.241-8.771 17.063-13.407 36.214-13.407 55.384v26.949c0 4.142 3.358 7.5 7.5 7.5s7.5-3.358 7.5-7.5v-26.949c0-16.795 4.063-33.575 11.749-48.526 1.893-3.684.442-8.205-3.242-10.099z"/><path d="m180.458 197.128v-11.658h16.233v11.658c0 9.559 7.777 17.335 17.335 17.335h28.616c9.559 0 17.335-7.777 17.335-17.335v-19.158c0-9.559-7.777-17.335-17.335-17.335h-28.616c-6.87 0-12.801 4.027-15.605 9.835h-19.695c-2.804-5.808-8.735-9.835-15.605-9.835h-28.616c-9.559 0-17.336 7.777-17.336 17.335v19.158c0 9.559 7.777 17.335 17.336 17.335h28.616c9.56.001 17.337-7.776 17.337-17.335zm31.233-19.157c0-1.288 1.048-2.335 2.335-2.335h28.616c1.288 0 2.335 1.048 2.335 2.335v19.158c0 1.288-1.048 2.335-2.335 2.335h-28.616c-1.288 0-2.335-1.048-2.335-2.335zm-79.52 19.157v-19.158c0-1.288 1.048-2.335 2.336-2.335h28.616c1.288 0 2.335 1.048 2.335 2.335v19.158c0 1.288-1.048 2.335-2.335 2.335h-28.616c-1.288.001-2.336-1.047-2.336-2.335z"/><path d="m464.998 285.645c-3.215-2.612-7.939-2.122-10.55 1.094-2.611 3.215-2.122 7.938 1.094 10.55 26.538 21.553 41.759 53.493 41.759 87.63 0 62.217-50.617 112.833-112.833 112.833s-112.833-50.617-112.833-112.833 50.617-112.833 112.833-112.833c15.821 0 31.13 3.216 45.501 9.558 3.788 1.671 8.216-.044 9.89-3.834 1.672-3.79-.044-8.217-3.834-9.89-16.292-7.189-33.638-10.834-51.557-10.834-55.928 0-103.576 36.104-120.877 86.228l-8.542-3.117c-3.445-1.256-7.088-.891-10.111.686v-29.267c18.508-14.445 31.774-34.802 37.43-57.729h.317c19.006 0 34.468-15.462 34.468-34.469 0-11.814-5.976-22.255-15.061-28.468l17.985-72.869c3.79-15.355.37-31.304-9.382-43.755-8.653-11.048-21.176-17.903-34.937-19.31-10.387-31.895-40.388-55.016-75.702-55.016h-24.003c-9.535 0-19.02 1.32-28.191 3.924-14.297 4.059-27.502 10.664-39.249 19.63-3.292 2.513-3.924 7.22-1.411 10.512 2.514 3.293 7.221 3.924 10.512 1.411 10.244-7.819 21.765-13.581 34.244-17.124 7.84-2.225 15.946-3.353 24.095-3.353h24.003c35.625 0 64.607 28.983 64.607 64.607 0 3.497-.985 6.908-2.849 9.867l-2.879 4.57c-.56-.335-1.126-.662-1.7-.978l-22.252-12.25c-3.744-2.061-8.471-1.391-11.494 1.632l-15.97 15.97c-.345.345-.803.535-1.291.535h-71.587c-23.049 0-41.8 18.751-41.8 41.8v44.381c-.588.061-1.172.138-1.751.228l-10.77-43.638c-7.247-29.361-1.225-60.274 16.521-84.814 2.427-3.356 1.674-8.045-1.682-10.472-3.357-2.428-8.045-1.674-10.472 1.682-20.336 28.12-27.236 63.547-18.93 97.199l11.262 45.63c-9.085 6.213-15.061 16.655-15.061 28.468 0 18.803 15.135 34.127 33.861 34.453 5.617 23.037 18.922 43.521 37.505 58.037v28.974c-3.023-1.577-6.667-1.943-10.112-.686l-35.644 13.005c-4.813 1.756-8.025 6.261-8.235 11.283l-3.471 1.416c-15.903 6.489-29.987 16.087-41.862 28.53-2.86 2.997-2.749 7.744.248 10.604 1.453 1.386 3.316 2.074 5.177 2.074 1.978 0 3.953-.778 5.427-2.322 10.166-10.652 22.182-18.917 35.72-24.592l3.627 42.161c.532 6.184 5.614 10.847 11.821 10.847h16.962l-1.356 17.74c-.317 4.134 1.495 8.058 4.846 10.498l68.244 49.686c1.317.958 2.866 1.437 4.415 1.437 1.592 0 3.183-.506 4.52-1.515.072-.054.129-.12.198-.176.005.008.01.015.015.022l67.924-49.453c3.352-2.44 5.164-6.364 4.847-10.496l-1.355-17.742h.831c19.088 46.621 64.945 79.551 118.357 79.551 70.488 0 127.833-57.346 127.833-127.833-.001-38.677-17.242-74.861-47.303-99.275zm-388.04-66.228c0-9.509 6.857-17.435 15.884-19.124v28.859c0 3.179.161 6.331.446 9.456-9.245-1.508-16.33-9.527-16.33-19.191zm207.974 19.328c.31-3.267.487-6.564.487-9.891v-28.691c9.441 1.336 16.734 9.449 16.734 19.254 0 9.974-7.543 18.209-17.221 19.328zm13.953-155.171c6.89 8.797 9.306 20.064 6.628 30.912l-17.494 70.877c-.856-.134-1.725-.227-2.601-.296v-44.313c0-14.039-5.41-27.287-14.728-37.228l3.815-6.056c3.374-5.355 5.157-11.532 5.157-17.862 0-2.98-.179-5.919-.499-8.815 7.742 1.904 14.668 6.327 19.722 12.781zm-191.044 145.579v-88.399c0-14.778 12.022-26.8 26.8-26.8h71.587c4.493 0 8.718-1.75 11.897-4.928l13.136-13.136 18.741 10.317c12.594 6.933 20.417 20.17 20.417 34.546v88.101c0 37.989-24.055 72.047-59.86 84.75l-.738.262c-13.703 4.861-28.785 4.831-42.468-.087-35.596-12.794-59.512-46.802-59.512-84.626zm54.439 98.742c8.518 3.062 17.472 4.592 26.429 4.592 8.849 0 17.701-1.495 26.129-4.485l.737-.262c4.993-1.771 9.785-3.909 14.362-6.357v21.772l-3.985 4.344c-9.578 10.438-22.654 16.188-36.822 16.188-14.167 0-27.244-5.749-36.821-16.188l-3.985-4.343v-21.48c4.454 2.384 9.108 4.476 13.956 6.219zm-35.565 122.446 1.481-19.372c.25-3.284-.89-6.552-3.128-8.968-2.238-2.415-5.41-3.8-8.703-3.8h-17.469l-4.435-51.547 31.608-11.533 47.503 129.335zm17.287-89.903c12.058 11.635 28.287 18.248 45.128 18.248 16.842 0 33.07-6.612 45.129-18.248l-45.129 122.869zm109.189 61.564c-2.238 2.416-3.377 5.685-3.126 8.967l1.48 19.372-46.857 34.115 47.503-129.335 7.347 2.681c-1.896 8.744-2.904 17.814-2.904 27.117 0 11.526 1.542 22.697 4.416 33.327-2.986.215-5.813 1.548-7.859 3.756z"/><path d="m443.616 348.918c-8.561-8.562-19.944-13.276-32.052-13.276-9.898 0-19.313 3.151-27.097 8.98-7.784-5.829-17.199-8.98-27.098-8.98-12.107 0-23.49 4.715-32.052 13.276-12.817 12.817-16.314 31.56-10.484 47.623h-13.665c-4.142 0-7.5 3.358-7.5 7.5s3.358 7.5 7.5 7.5h22.748c.38.416 42.843 43.56 42.843 43.56 4.708 4.78 10.997 7.413 17.707 7.413 6.709 0 12.998-2.633 17.706-7.413l41.685-42.322c1.913-1.942 3.601-4.023 5.091-6.201h27.054c4.142 0 7.5-3.358 7.5-7.5s-3.358-7.5-7.5-7.5h-20.405c3.536-14.842-.466-31.144-11.981-42.66zm-107.692 10.607c5.729-5.728 13.345-8.883 21.445-8.883 8.101 0 15.717 3.155 21.449 8.887l.349.349c2.93 2.925 7.676 2.924 10.603-.004l.349-.349c11.825-11.825 31.064-11.826 42.891 0 8.625 8.626 10.942 21.264 6.944 32.053h-29.887l-7.29-20.627c-1.082-3.061-4.036-5.094-7.255-4.999-3.246.08-6.071 2.238-7.001 5.349l-8.913 29.807-10.012-20.483c-1.284-2.626-3.988-4.269-6.897-4.205-2.922.062-5.542 1.816-6.713 4.493l-6.834 15.628h-17.798c-6.953-11.647-5.422-27.024 4.57-37.016zm55.562 85.05c-1.867 1.895-4.36 2.938-7.02 2.938s-5.153-1.044-7.02-2.938l-32.536-33.034h9.146c2.98 0 5.678-1.765 6.872-4.495l2.307-5.275 11.322 23.164c1.265 2.589 3.89 4.207 6.736 4.207.205 0 .411-.008.617-.025 3.078-.253 5.686-2.367 6.571-5.326l7.819-26.149 1.391 3.936c1.059 2.997 3.893 5.001 7.071 5.001h24.149z"/></g></svg>