<?xml version="1.0"?>
<svg xmlns="http://www.w3.org/2000/svg" xmlns:xlink="http://www.w3.org/1999/xlink" xmlns:svgjs="http://svgjs.com/svgjs" version="1.1" width="512" height="512" x="0" y="0" viewBox="0 0 291.204 291.204" style="enable-background:new 0 0 512 512" xml:space="preserve" class=""><g>
<g xmlns="http://www.w3.org/2000/svg">
	<g>
		<path d="M212.19,157.175c-5.585-12.848-18.15-69.904-27.861-121.711C182.573,15.542,165.645,0,145.602,0    s-36.971,15.542-38.727,35.464c-9.711,51.807-22.276,108.863-27.861,121.711c-32.406,1.935-58.182,28.913-58.182,61.798    c0,34.137,27.772,61.908,61.909,61.908c8.841,0,17.546-1.907,25.538-5.529c9.745,10.08,23.277,15.853,37.323,15.853    s27.578-5.772,37.323-15.853c7.991,3.622,16.697,5.529,25.538,5.529c34.137,0,61.909-27.771,61.909-61.908    C270.372,186.088,244.596,159.109,212.19,157.175z M208.462,265.881c-5.704,0-11.328-1.063-16.611-3.064    c2.297-4.525,3.935-9.364,4.837-14.36c2.014,0.366,4.16,0.571,6.396,0.571c11.281,0,20.425-5.038,20.425-11.251    c0-6.214-9.145-11.251-20.425-11.251c-10.447,0-19.046,4.323-20.263,9.896l-0.411,0.032c0.595,7.721-1.286,15.416-5.243,21.961    l-2.329,2.693c-0.213,0.247-0.425,0.495-0.646,0.734c-7.352,7.938-17.772,12.492-28.592,12.492s-21.24-4.554-28.59-12.49    c-0.218-0.234-0.424-0.477-0.632-0.718l-2.327-2.684c-3.969-6.552-5.857-14.257-5.261-21.989l-0.41-0.032    c-1.217-5.574-9.817-9.896-20.263-9.896c-11.281,0-20.425,5.037-20.425,11.251c0,6.214,9.145,11.251,20.425,11.251    c2.236,0,4.382-0.205,6.396-0.571c0.902,4.997,2.54,9.835,4.837,14.36c-5.283,2.002-10.906,3.064-16.611,3.064    c-25.866,0-46.909-21.043-46.909-46.908c0-25.866,21.043-46.909,46.909-46.909c7.062,0,10.164-6.687,15.364-25.519    c2.971-10.759,6.537-25.711,10.599-44.44c6.889-31.761,12.925-63.936,12.985-64.257l0.105-0.805    C122.748,24.683,133.205,15,145.602,15s22.854,9.683,23.807,22.043l0.105,0.805c0.061,0.321,6.097,32.496,12.985,64.257    c4.062,18.729,7.628,33.682,10.599,44.44c5.2,18.832,8.303,25.519,15.364,25.519c25.866,0,46.909,21.043,46.909,46.909    C255.372,244.838,234.329,265.881,208.462,265.881z" fill="#4db6ac" data-original="#000000" style="" class=""/>
	</g>
	<g>
		<path d="M132.398,76.158c-4.052-0.839-8.028,1.753-8.876,5.808l-14,67c-0.847,4.055,1.753,8.028,5.808,8.876    c0.518,0.107,1.033,0.16,1.542,0.16c3.476,0,6.595-2.431,7.334-5.968l14-67C139.052,80.979,136.453,77.006,132.398,76.158z" fill="#4db6ac" data-original="#000000" style="" class=""/>
	</g>
	<g>
		<circle cx="111.544" cy="175.717" r="7.5" fill="#4db6ac" data-original="#000000" style="" class=""/>
	</g>
</g>
<g xmlns="http://www.w3.org/2000/svg">
</g>
<g xmlns="http://www.w3.org/2000/svg">
</g>
<g xmlns="http://www.w3.org/2000/svg">
</g>
<g xmlns="http://www.w3.org/2000/svg">
</g>
<g xmlns="http://www.w3.org/2000/svg">
</g>
<g xmlns="http://www.w3.org/2000/svg">
</g>
<g xmlns="http://www.w3.org/2000/svg">
</g>
<g xmlns="http://www.w3.org/2000/svg">
</g>
<g xmlns="http://www.w3.org/2000/svg">
</g>
<g xmlns="http://www.w3.org/2000/svg">
</g>
<g xmlns="http://www.w3.org/2000/svg">
</g>
<g xmlns="http://www.w3.org/2000/svg">
</g>
<g xmlns="http://www.w3.org/2000/svg">
</g>
<g xmlns="http://www.w3.org/2000/svg">
</g>
<g xmlns="http://www.w3.org/2000/svg">
</g>
</g></svg>
