<?xml version="1.0"?>
<svg xmlns="http://www.w3.org/2000/svg" xmlns:xlink="http://www.w3.org/1999/xlink" xmlns:svgjs="http://svgjs.com/svgjs" version="1.1" width="512" height="512" x="0" y="0" viewBox="0 0 512 512.08755" style="enable-background:new 0 0 512 512" xml:space="preserve" class=""><g><path xmlns="http://www.w3.org/2000/svg" d="m221.910156 469.347656c0 4.710938-3.820312 8.53125-8.53125 8.53125-4.714844 0-8.535156-3.820312-8.535156-8.53125 0-4.714844 3.820312-8.535156 8.535156-8.535156 4.710938 0 8.53125 3.820312 8.53125 8.535156zm0 0" fill="#4db6ac" data-original="#000000" style="" class=""/><path xmlns="http://www.w3.org/2000/svg" d="m358.445312 366.945312c0 4.714844-3.820312 8.535157-8.535156 8.535157-4.710937 0-8.53125-3.820313-8.53125-8.535157 0-4.710937 3.820313-8.53125 8.53125-8.53125 4.714844 0 8.535156 3.820313 8.535156 8.53125zm0 0" fill="#4db6ac" data-original="#000000" style="" class=""/><path xmlns="http://www.w3.org/2000/svg" d="m474.722656 327.136719c5.0625-11.617188 7.757813-24.128907 7.929688-36.800781-.042969-3.859376-2.667969-7.210938-6.410156-8.171876-1.507813-.386718-37.363282-9.328124-60.546876 8.847657-4.132812 3.285156-7.703124 7.214843-10.582031 11.636719-3.433593-9.375-8.230469-18.1875-14.242187-26.15625-1.828125-2.4375-4.820313-3.714844-7.847656-3.351563-3.027344.363281-5.628907 2.316406-6.828126 5.121094-1.195312 2.800781-.808593 6.03125 1.023438 8.472656 10.253906 13.355469 16.101562 29.574219 16.722656 46.402344-.261718 1.621093-.488281 3.167969-.652344 4.59375-.632812-.421875-1.253906-.828125-1.933593-1.28125-10.039063-7.773438-22.347657-12.046875-35.042969-12.171875-2.683594.011718-5.363281.15625-8.03125.441406 3.578125-18.839844.832031-38.335938-7.804688-55.457031-8.855468-20.695313-11.84375-43.433594-8.625-65.714844 10.699219-3.277344 18.019532-13.140625 18.058594-24.335937-.015625-10.824219-6.859375-20.464844-17.078125-24.042969.011719-2.671875.011719-5.179688.011719-5.820313-1.289062-83.605468-69.992188-150.398437-153.601562-149.3359372-83.605469-1.0624998-152.308594 65.7304692-153.597657 149.3359372 0 .640625 0 3.136719.011719 5.800782-3.570312 1.210937-6.808594 3.234374-9.460938 5.910156-4.90625 4.761718-7.660156 11.316406-7.617187 18.152344.039063 11.195312 7.359375 21.058593 18.058594 24.335937 3.214843 22.28125.230469 45.019531-8.625 65.714844-15.984375 29.710937-11.71875 66.242187 10.6875 91.464843-18.484375 20.402344-28.699219 46.957032-28.6562502 74.484376v51.203124c.015625 14.128907 11.4687502 25.582032 25.6015622 25.597657h307.199219c5.855469-.042969 11.511719-2.125 15.996094-5.886719 5.988281 3.585938 12.785156 5.609375 19.757812 5.886719 10.359375.5625 20.640625-2.039063 29.484375-7.457031 4.238281-3.476563 10.34375-3.476563 14.582031 0 8.847657 5.417968 19.132813 8.019531 29.492188 7.457031 28.5 0 69.886719-42.414063 69.886719-108.882813 0-43.105468-12.253907-68.097656-37.320313-75.992187zm-48.496094-22.691407c11.566407-9.074218 29.269532-8.277343 38.917969-6.984374-1.042969 9.683593-4.507812 27.042968-16.085937 36.117187h-.007813c-11.386719 7.0625-25.015625 9.585937-38.179687 7.074219.09375-1.722656.132812-3.640625.117187-5.675782 1.308594-11.65625 6.707031-22.476562 15.238281-30.53125zm-97.09375 25.660157c-6.894531 3.488281-12.773437 8.695312-17.066406 15.121093-9.492187-6.828124-20.007812-12.105468-31.15625-15.632812-.84375-2.132812-2.511718-3.832031-4.628906-4.707031l-36.238281-14.484375c-7.492188-2.976563-16.046875-.324219-20.539063 6.367187l-6.125 9.1875v-31.269531c46.539063-9.960938 84.03125-44.359375 97.945313-89.875h3.183593c-3.042968 24.558594.65625 49.484375 10.710938 72.101562 8.46875 16.464844 9.882812 35.664063 3.914062 53.191407zm-149.890624 47.058593-17.066407-25.601562v-53.949219c5.664063.675781 11.363281 1.03125 17.066407 1.066407 5.707031-.035157 11.402343-.390626 17.070312-1.0625v53.941406zm25.601562-223.550781h59.734375v8.53125c-.015625 14.132813-11.46875 25.585938-25.601563 25.601563h-8.53125c-14.132812-.015625-25.585937-11.46875-25.601562-25.601563zm69.484375-13.96875c-2.855469-2.015625-6.257813-3.097656-9.75-3.097656h-59.734375c-2.230469 0-4.4375.441406-6.496094 1.300781-11.59375-7.394531-26.429687-7.359375-37.992187.085938-2.117188-.917969-4.402344-1.386719-6.710938-1.386719h-59.734375c-3.492187 0-6.898437 1.082031-9.75 3.097656l-20.96875 7.945313c.101563-.398438.179688-.785156.285156-1.183594.058594-.210938.109376-.429688.152344-.644531v-.007813l.007813-.007812.007812-.074219 3.542969-19.300781c47.832031-13.015625 69.800781-36 79.363281-50.683594 16.011719 17.84375 55.277344 49.117188 131.277344 44.101562 7.0625 8.417969 12.933594 17.769532 17.449219 27.792969zm-180.417969 13.96875h59.734375v8.53125c-.015625 14.132813-11.46875 25.585938-25.601562 25.601563h-8.53125c-14.132813-.015625-25.585938-11.46875-25.601563-25.601563zm-33.5 30.757813c-.40625-3.726563-.621094-7.46875-.632812-11.21875 0-2.152344.078125-4.140625.207031-6.089844l16.859375-6.386719v1.46875c.027344 23.554688 19.113281 42.640625 42.667969 42.667969h8.53125c23.554687-.027344 42.640625-19.113281 42.667969-42.667969v-8.53125c-.027344-.632812-.09375-1.265625-.191407-1.890625 5.390625-3.105468 12.007813-3.1875 17.46875-.207031-.113281.695313-.183593 1.394531-.210937 2.097656v8.53125c.027344 23.554688 19.113281 42.640625 42.667968 42.667969h8.53125c23.554688-.027344 42.640626-19.113281 42.667969-42.667969v-1.46875l16.863281 6.386719c.121094 1.910156.203126 3.902344.203126 6.089844-.011719 3.722656-.222657 7.4375-.625 11.136718-.390626 3.398438-.949219 6.796876-1.648438 10.082032-11.140625 44.496094-47.828125 78.007812-93.152344 85.082031-15.898437 2.867187-32.183594 2.867187-48.082031 0-45.460937-7.035156-82.214844-40.742187-93.152344-85.425781-.707031-3.230469-1.253906-6.453125-1.640625-9.65625zm108.277344 207.714844-22.46875 28.085937-48.484375-83.109375 27.050781-10.824219zm65.015625-65.839844 27.050781 10.816406-48.484375 83.109375-22.46875-28.085937zm90.609375-138.5h-9.527344c.070313-.535156.195313-1.039063.257813-1.574219.472656-4.324219.71875-8.667969.734375-13.019531 0-.875-.046875-1.636719-.0625-2.472656h8.597656c2.300781-.003907 4.5.941406 6.082031 2.617187 1.585938 1.554687 2.46875 3.691406 2.449219 5.914063-.003906 4.714843-3.820312 8.53125-8.53125 8.535156zm-145.070312-170.667969c74.1875-1.074219 135.253906 58.085937 136.535156 132.269531v4.265625h-1.667969c-.132813-.8125-.242187-1.554687-.386719-2.425781-.550781-2.648438-1.183594-5.300781-1.992187-8.222656-5.910157-13.617188-13.847657-26.257813-23.542969-37.492188-1.761719-2.160156-4.480469-3.292968-7.253906-3.027344-95.308594 7.835938-127.125-44.714843-128.417969-46.933593-1.6875-2.957031-4.980469-4.613281-8.359375-4.207031-3.386719.390624-6.222656 2.75-7.226562 6.007812-.476563 1.515625-12.25 37.375-79.199219 53.882812-3.257813.804688-5.742188 3.441407-6.351563 6.742188l-4.464844 24.34375c-.785156 2.964844-1.558593 5.941406-2.277343 9.582031-.097657.589844-.179688 1.164063-.273438 1.75h-1.652343c0-2.019531 0-3.753906 0-4.265625 1.28125-74.183594 62.347656-133.34375 136.53125-132.269531zm-150.980469 156.050781c1.582031-1.601562 3.75-2.488281 6-2.449218h8.515625c-.015625.832031-.066406 1.605468-.066406 2.472656.015624 4.386718.265624 8.769531.742187 13.125.058594.5.183594.972656.25 1.46875h-9.527344c-4.710937-.003906-8.527343-3.820313-8.53125-8.535156-.003906-2.300782.941407-4.5 2.617188-6.082032zm5.015625 103.765625c10.046875-22.609375 13.75-47.527343 10.703125-72.082031h3.238281c13.839844 45.542969 51.335938 79.96875 97.890625 89.875v31.269531l-6.125-9.1875c-4.496094-6.683593-13.039063-9.335937-20.53125-6.375l-36.242187 14.492188c-2.046876.859375-3.675782 2.488281-4.527344 4.535156-13.273438 4.152344-25.644532 10.773437-36.464844 19.507813-17.542969-19.949219-20.714844-48.742188-7.941406-72.035157zm-16.167969 209.519531v-51.203124c-.089844-41.078126 26.636719-77.410157 65.878906-89.5625l54.75 93.867187c1.417969 2.433594 3.945313 4.007813 6.75 4.210937.207031.011719.414063.019532.621094.019532 2.59375 0 5.046875-1.175782 6.667969-3.199219l18.933594-23.667969v78.066406h-145.066407c-4.710937-.003906-8.53125-3.820312-8.535156-8.53125zm170.667969 8.53125v-78.066406l18.933594 23.667969c1.621093 2.023437 4.074218 3.199219 6.667968 3.199219.207032 0 .414063-.007813.621094-.023438 2.808594-.203125 5.335938-1.777344 6.753906-4.210937l54.703125-93.777344c10.476563 3.300781 20.285157 8.417969 28.984375 15.121094-4.152344 13.695312-6.085937 27.964843-5.730468 42.273437-1.074219 34.019532 11.539062 67.050782 35.007812 91.699219-.289062.054687-.582031.09375-.875.117187zm254.378906 0c-7.34375.53125-14.664062-1.273437-20.917969-5.15625-9.558593-6.546874-22.15625-6.546874-31.714843 0-6.257813 3.882813-13.582032 5.691407-20.925782 5.15625-5.996094-.46875-11.710937-2.753906-16.378906-6.550781-.15625-.109375-.242188-.273437-.402344-.375l-.132812-.046875c-17.253906-12.816406-35.90625-42.777344-35.90625-84.84375 0-38.144531 9.632812-53.152344 22.652344-58.722656l.046874-.019531c5.679688-2.203125 11.746094-3.238281 17.835938-3.039063 9.292969.15625 18.269531 3.414063 25.507812 9.25 5.464844 4.539063 12.207032 7.269532 19.289063 7.816406h.019531c2.171875-.050781 4.324219-.378906 6.414063-.976562 4.542969.636719 9.128906.960938 13.71875.96875 13.679687.542969 27.15625-3.464844 38.324219-11.390625 1.863281-1.488281 3.605468-3.121094 5.214843-4.878906 11.488281 1.75 30.175781 9.535156 30.175781 60.992187 0 56.957032-34.199218 91.816406-52.820312 91.816406zm0 0" fill="#4db6ac" data-original="#000000" style="" class=""/><path xmlns="http://www.w3.org/2000/svg" d="m349.910156 401.078125c0-4.710937-3.820312-8.53125-8.53125-8.53125-4.714844 0-8.535156 3.820313-8.535156 8.53125 0 1.476563.109375 36.359375 9.433594 55.019531 1.363281 2.726563 4.078125 4.519532 7.121094 4.699219 3.042968.183594 5.953124-1.269531 7.632812-3.816406 1.679688-2.542969 1.875-5.792969.511719-8.519531-5.296875-15.222657-7.878907-31.261719-7.632813-47.382813zm0 0" fill="#4db6ac" data-original="#000000" style="" class=""/></g></svg>
