?xml version="1.0"?>
<svg xmlns="http://www.w3.org/2000/svg" xmlns:xlink="http://www.w3.org/1999/xlink" xmlns:svgjs="http://svgjs.com/svgjs" version="1.1" width="512" height="512" x="0" y="0" viewBox="0 0 64 64" style="enable-background:new 0 0 512 512" xml:space="preserve" class=""><g><g xmlns="http://www.w3.org/2000/svg"><path d="m56 24.948v-.341c0-2.833-1.104-5.498-3.107-7.501s-4.666-3.106-7.499-3.106c0 0-.001 0-.002 0h-.395c-1.265 0-2.476.226-3.608.621-.257-.843-.389-1.715-.389-2.604 0-3.009 1.035-5.96 2.914-8.31l2.167-2.707h-8.647l-.604 1.008c-1.851 3.085-2.83 6.617-2.83 10.213 0 2.403.6 4.767 1.728 6.885-1.088 1.705-1.728 3.723-1.728 5.892 0 .75-.307 1.44-.862 1.943-.556.502-1.276.738-2.019.665l-5.546-.554c-.347-.035-.698-.052-1.048-.052-5.803 0-10.525 4.722-10.525 10.525 0 1.133.21 2.215.576 3.222l-.101.067c-1.549 1.034-2.475 2.763-2.475 4.626 0 2.296 1.399 4.271 3.39 5.118-.856.898-1.39 2.107-1.39 3.442 0 1.85 1.022 3.451 2.52 4.315-.328.481-.52 1.061-.52 1.685 0 1.654 1.346 3 3 3h23c6.617 0 12-5.383 12-12 0-4.548-2.622-8.681-6.58-10.699 5.138-3.182 8.58-8.865 8.58-15.353zm-20-12.727c0-3.234.88-6.409 2.544-9.184l3.394-.037c-1.899 2.608-2.938 5.784-2.938 9.017 0 1.176.193 2.326.56 3.434-.906.519-1.732 1.16-2.454 1.905-.718-1.613-1.106-3.36-1.106-5.135zm2 28.779c-3.444 0-6.733-1.645-8.8-4.4l-1.2-1.6c-.939-1.252-2.435-2-4-2-1.068 0-2.073.417-2.829 1.172s-1.172 1.761-1.171 2.83c.001 2.205 1.796 3.998 4 3.998h7.084c2.051 1.287 4.45 2 6.916 2 2.536 0 4.949-.535 7.14-1.489 4.053 1.342 6.86 5.192 6.86 9.489 0 5.514-4.486 10-10 10h-23c-.552 0-1-.449-1-1s.448-1 1-1h15v-2h-15c-1.654 0-3-1.346-3-3s1.346-3 3-3h23v-2h-24.44c-1.963 0-3.56-1.597-3.56-3.56 0-1.143.555-2.196 1.472-2.865 1.681 2.654 4.636 4.425 8.003 4.425h19.525c1.654 0 3 1.346 3 3s-1.346 3-3 3h-15v2h15c2.757 0 5-2.243 5-5s-2.243-5-5-5h-19.525c-4.121 0-7.475-3.354-7.475-7.475 0-4.701 3.824-8.525 8.525-8.525.283 0 .565.014.848.042l5.547.554c1.296.126 2.595-.298 3.56-1.172.966-.874 1.52-2.123 1.52-3.426 0-4.961 4.036-8.998 8.997-8.998h.395.002c2.299 0 4.46.895 6.085 2.521 1.625 1.625 2.521 3.787 2.521 6.086v.341c0 8.851-7.178 16.052-16 16.052zm-9.379-2h-4.621c-1.103 0-1.999-.897-2-1.999 0-.534.208-1.037.585-1.415.378-.378.881-.586 1.415-.586.939 0 1.836.449 2.4 1.2l1.2 1.6c.317.423.659.823 1.021 1.2z" fill="#4db6ac" data-original="#000000" style=""/><path d="m20 53h6v2h-6z" fill="#4db6ac" data-original="#000000" style=""/><path d="m36 57h8v2h-8z" fill="#4db6ac" data-original="#000000" style=""/></g></g></svg>
